<?xml version="1.0" encoding="UTF-8" standalone="no"?>
<!-- Created with Inkscape (http://www.inkscape.org/) -->

<svg
   xmlns:dc="http://purl.org/dc/elements/1.1/"
   xmlns:cc="http://creativecommons.org/ns#"
   xmlns:rdf="http://www.w3.org/1999/02/22-rdf-syntax-ns#"
   xmlns:svg="http://www.w3.org/2000/svg"
   xmlns="http://www.w3.org/2000/svg"
   xmlns:sodipodi="http://sodipodi.sourceforge.net/DTD/sodipodi-0.dtd"
   xmlns:inkscape="http://www.inkscape.org/namespaces/inkscape"
   width="22"
   height="22"
   id="svg2"
   version="1.1"
   inkscape:version="0.47pre4 r22446"
   sodipodi:docname="active-close-button.svg"
   inkscape:export-filename="/home/karl/Workspace/crack-house/grommits/data/DashboardResources/images/active-close-button.png"
   inkscape:export-xdpi="90"
   inkscape:export-ydpi="90">
  <defs
     id="defs4">
    <inkscape:perspective
       sodipodi:type="inkscape:persp3d"
       inkscape:vp_x="0 : 526.18109 : 1"
       inkscape:vp_y="0 : 1000 : 0"
       inkscape:vp_z="744.09448 : 526.18109 : 1"
       inkscape:persp3d-origin="372.04724 : 350.78739 : 1"
       id="perspective10" />
    <inkscape:perspective
       id="perspective3640"
       inkscape:persp3d-origin="0.5 : 0.33333333 : 1"
       inkscape:vp_z="1 : 0.5 : 1"
       inkscape:vp_y="0 : 1000 : 0"
       inkscape:vp_x="0 : 0.5 : 1"
       sodipodi:type="inkscape:persp3d" />
    <inkscape:perspective
       id="perspective3663"
       inkscape:persp3d-origin="0.5 : 0.33333333 : 1"
       inkscape:vp_z="1 : 0.5 : 1"
       inkscape:vp_y="0 : 1000 : 0"
       inkscape:vp_x="0 : 0.5 : 1"
       sodipodi:type="inkscape:persp3d" />
    <inkscape:perspective
       id="perspective3685"
       inkscape:persp3d-origin="0.5 : 0.33333333 : 1"
       inkscape:vp_z="1 : 0.5 : 1"
       inkscape:vp_y="0 : 1000 : 0"
       inkscape:vp_x="0 : 0.5 : 1"
       sodipodi:type="inkscape:persp3d" />
  </defs>
  <sodipodi:namedview
     id="base"
     pagecolor="#ffffff"
     bordercolor="#666666"
     borderopacity="1.0"
     inkscape:pageopacity="0.0"
     inkscape:pageshadow="2"
     inkscape:zoom="24.136364"
     inkscape:cx="4.4952919"
     inkscape:cy="11"
     inkscape:document-units="px"
     inkscape:current-layer="layer1"
     showgrid="true"
     showguides="false"
     inkscape:window-width="1280"
     inkscape:window-height="750"
     inkscape:window-x="0"
     inkscape:window-y="0"
     inkscape:window-maximized="1"
     inkscape:snap-nodes="false"
     inkscape:snap-bbox="false">
    <inkscape:grid
       type="xygrid"
       id="grid2816"
       empspacing="5"
       visible="true"
       enabled="true"
       snapvisiblegridlinesonly="true" />
  </sodipodi:namedview>
  <metadata
     id="metadata7">
    <rdf:RDF>
      <cc:Work
         rdf:about="">
        <dc:format>image/svg+xml</dc:format>
        <dc:type
           rdf:resource="http://purl.org/dc/dcmitype/StillImage" />
        <dc:title></dc:title>
      </cc:Work>
    </rdf:RDF>
  </metadata>
  <g
     inkscape:label="Layer 1"
     inkscape:groupmode="layer"
     id="layer1"
     transform="translate(0,-1030.3622)">
    <path
       sodipodi:type="arc"
       style="color:#000000;fill:#000000;fill-opacity:0.8627451;fill-rule:nonzero;stroke:#ffffff;stroke-width:2.68675566;stroke-linecap:butt;stroke-linejoin:miter;stroke-miterlimit:4;stroke-opacity:1;stroke-dasharray:none;stroke-dashoffset:0;marker:none;visibility:visible;display:inline;overflow:visible;enable-background:accumulate"
       id="path2818"
       sodipodi:cx="11.5"
       sodipodi:cy="12"
       sodipodi:rx="10.5"
       sodipodi:ry="11"
       d="M 22,12 A 10.5,11 0 1 1 1,12 10.5,11 0 1 1 22,12 z"
       transform="matrix(0.76190966,0,0,0.72727742,2.2380387,1032.6348)" />
    <path
       style="color:#000000;fill:#ffffff;fill-opacity:1;fill-rule:nonzero;stroke:none;stroke-width:1;marker:none;visibility:visible;display:inline;overflow:visible;enable-background:accumulate"
       d="m 7.6486774,1037.6522 c -0.1068693,0.014 -0.1970062,0.038 -0.2593287,0.1005 -0.4225361,0.4224 0.3854787,1.944 1.8551965,3.6106 -1.4697178,1.6665 -2.2777326,3.188 -1.8551965,3.6107 0.422536,0.4224 1.9441733,-0.3855 3.6106513,-1.8554 1.666478,1.4699 3.188116,2.2778 3.610651,1.8554 0.422535,-0.4227 -0.385478,-1.9442 -1.855196,-3.6107 1.469718,-1.6666 2.277731,-3.1882 1.855196,-3.6106 -0.422535,-0.4226 -1.944173,0.3854 -3.610651,1.8551 -1.4206785,-1.253 -2.7336342,-2.0166 -3.3513226,-1.955 z"
       id="path3592" />
    <path
       style="color:#000000;fill:none;stroke:#ffffff;stroke-width:0.99999988;stroke-miterlimit:4;stroke-opacity:0.30057804;stroke-dasharray:none;marker:none;visibility:visible;display:inline;overflow:visible;enable-background:accumulate"
       d="m 7.4013394,1037.3785 c -0.1147568,0.014 -0.2115458,0.041 -0.278468,0.1062 -0.4537204,0.4538 0.4139282,2.0875 1.9921156,3.8771 -1.5781874,1.7897 -2.445836,3.4236 -1.9921156,3.8771 0.4537205,0.4538 2.0876592,-0.4138 3.8771286,-1.9923 1.789469,1.5785 3.423409,2.4461 3.877128,1.9923 0.45372,-0.4535 -0.413928,-2.0874 -1.992116,-3.8771 1.578188,-1.7896 2.445836,-3.4233 1.992116,-3.8771 -0.453719,-0.4538 -2.087659,0.4141 -3.877128,1.992 -1.5255292,-1.3454 -2.935385,-2.1654 -3.5986606,-2.0989 z"
       id="path3592-2" />
  </g>
</svg>
